<?xml version="1.0" encoding="utf-8"?>
<!-- Generator: Adobe Illustrator 25.0.1, SVG Export Plug-In . SVG Version: 6.00 Build 0)  -->
<svg version="1.1" xmlns="http://www.w3.org/2000/svg" xmlns:xlink="http://www.w3.org/1999/xlink" x="0px" y="0px"
	 viewBox="0 0 510 510" style="enable-background:new 0 0 510 510;" xml:space="preserve">
<style type="text/css">
	.st0{fill:#01406E;}
	.st1{fill:#EC6E15;}
	.st2{fill:#FFFFFF;}
</style>
<g id="Background_xA0_Image_1_">
</g>
<g id="BLUE">
	<path id="blue_x5F_ear" class="st0" d="M322.01,456.69c-10.17-11.12-48-58.16-48-58.16s-5.35-6.78,3.59-6.97
		c8.87-2.3,27.33-5.4,43.37-18.95s30.26-39.79,19.83-92.77c-4.17-20.4-9.65-30.79-22.04-45.79c-7.7-15,28.57-0.53,28.57-0.53
		s37.57,11.58,62.09,44.22c24.52,32.64,18.52,76.59,18.52,76.59s-3.39,47.64-46.17,80.8c-28.7,20.92-41.09,25.27-41.09,25.27
		S328.6,465.44,322.01,456.69z"/>
	<path id="orange_x5F_head_4_" class="st0" d="M200.01,84.98v5.91h6.43v12.87h10.78v7.65c0,0-24.87-2.96-41.22,9.91
		s-24.87,23.13-31.3,37.91s-9.91,30.26-10.61,46.43c-0.7,16.17,4.35,37.91,13.91,43.65s76.87-10.78,88.17-11.13
		c11.3-0.35,39.78-5.7,70.48,10.17c6.26,2.52,20.61,17.78,21.13,31.52c0.52,13.74,0,41.91,0,41.91s-0.52,31.3-24.52,46.04
		s-48.65,17.61-84.78,13.7s-64.26-27.26-76.54-29.48c-12.28-2.22-31.59-2.09-31.59-2.09s1.17-17.22,8.48-26.87
		c-6.78-9.26-22.43-33.78-27.26-58.43s-15.57-59.7,15.57-112.91S192.36,85.67,200.01,84.98z"/>
</g>
<g id="ORANGE">
	<path id="orange_x5F_ear" class="st1" d="M315.51,456.74c-10.17-11.02-48-57.65-48-57.65s-5.35-6.72,3.59-6.91
		c8.87-2.28,27.33-5.35,43.37-18.78s30.26-39.43,19.83-91.96c-4.17-20.22-9.65-30.52-22.04-45.39c-7.7-14.87,28.57-0.52,28.57-0.52
		s37.57,11.48,62.09,43.83c24.52,32.35,18.52,75.91,18.52,75.91s-3.39,47.22-46.17,80.09c-28.7,20.74-41.09,25.04-41.09,25.04
		S322.1,465.41,315.51,456.74z"/>
	<path id="orange_x5F_head_2_" class="st1" d="M196.09,89.85v5.91h6.43v12.87h10.78v7.65c0,0-24.87-2.96-41.22,9.91
		s-24.87,23.13-31.3,37.91s-9.91,30.26-10.61,46.43c-0.7,16.17,4.35,37.91,13.91,43.65c9.57,5.74,76.87-10.78,88.17-11.13
		c11.3-0.35,39.78-5.7,70.48,10.17c6.26,2.52,20.61,17.78,21.13,31.52c0.52,13.74,0,41.91,0,41.91s-0.52,31.3-24.52,46.04
		s-48.65,17.61-84.78,13.7s-64.26-27.26-76.54-29.48c-12.28-2.22-31.59-2.09-31.59-2.09s1.17-17.22,8.48-26.87
		c-6.78-9.26-22.43-33.78-27.26-58.43c-4.83-24.65-15.57-59.7,15.57-112.91S188.44,90.54,196.09,89.85z"/>
</g>
<g id="blue_x5F_digital">
	<rect x="210.04" y="80.84" class="st0" width="19.52" height="19.52"/>
	<rect x="252.98" y="67.08" class="st0" width="12.98" height="12.98"/>
	<rect x="244.04" y="41.31" class="st0" width="15.42" height="15.42"/>
	<rect x="311.15" y="75.49" class="st0" width="12.85" height="12.85"/>
</g>
<g id="orange_x5F_digital">
	<rect x="203" y="67.08" class="st1" width="19.13" height="19.13"/>
	<rect x="240.78" y="46.92" class="st1" width="14.28" height="14.28"/>
	<rect x="280.04" y="78.23" class="st1" width="11.74" height="11.74"/>
	<rect x="304.7" y="50.45" class="st1" width="12.91" height="12.91"/>
	<rect x="343.7" y="52.79" class="st1" width="14.28" height="14.28"/>
</g>
<g id="eye">
	<circle class="st2" cx="204.41" cy="271.46" r="10.5"/>
	<path class="st0" d="M201,276.59c-2.6-1.42-4.16-3.68-4.35-3.96c-1.37-2.02-1.82-3.97-2-5.06c-0.32,0.83-1.31,3.63-0.27,6.99
		c0.26,0.83,1.13,3.29,3.61,5.21c1.99,1.54,4.03,1.96,5.02,2.09c1.64,0.22,2.98,0.01,3.75-0.17c2.18-0.5,3.66-1.58,4.37-2.17
		c1.39-1.16,2.19-2.44,2.61-3.26C213.12,276.57,206.65,279.68,201,276.59z"/>
</g>
</svg>
